%TF.GenerationSoftware,KiCad,Pcbnew,(6.0.9)*%
%TF.CreationDate,2023-01-23T14:00:59+05:30*%
%TF.ProjectId,simpleLED,73696d70-6c65-44c4-9544-2e6b69636164,rev?*%
%TF.SameCoordinates,Original*%
%TF.FileFunction,Legend,Top*%
%TF.FilePolarity,Positive*%
%FSLAX46Y46*%
G04 Gerber Fmt 4.6, Leading zero omitted, Abs format (unit mm)*
G04 Created by KiCad (PCBNEW (6.0.9)) date 2023-01-23 14:00:59*
%MOMM*%
%LPD*%
G01*
G04 APERTURE LIST*
%ADD10C,0.150000*%
%ADD11C,0.120000*%
G04 APERTURE END LIST*
D10*
X121848571Y-92789523D02*
X121848571Y-93551428D01*
X122134285Y-93932380D02*
X121467619Y-94170476D01*
X122134285Y-94408571D01*
X121515238Y-95170476D02*
X121467619Y-95075238D01*
X121467619Y-94884761D01*
X121515238Y-94789523D01*
X121610476Y-94741904D01*
X121991428Y-94741904D01*
X122086666Y-94789523D01*
X122134285Y-94884761D01*
X122134285Y-95075238D01*
X122086666Y-95170476D01*
X121991428Y-95218095D01*
X121896190Y-95218095D01*
X121800952Y-94741904D01*
X121848571Y-89584523D02*
X121848571Y-90346428D01*
X121467619Y-89965476D02*
X122229523Y-89965476D01*
X122134285Y-90727380D02*
X121467619Y-90965476D01*
X122134285Y-91203571D01*
X121515238Y-91965476D02*
X121467619Y-91870238D01*
X121467619Y-91679761D01*
X121515238Y-91584523D01*
X121610476Y-91536904D01*
X121991428Y-91536904D01*
X122086666Y-91584523D01*
X122134285Y-91679761D01*
X122134285Y-91870238D01*
X122086666Y-91965476D01*
X121991428Y-92013095D01*
X121896190Y-92013095D01*
X121800952Y-91536904D01*
X123840952Y-96972380D02*
X124031428Y-96972380D01*
X124126666Y-96924761D01*
X124174285Y-96877142D01*
X124269523Y-96734285D01*
X124317142Y-96543809D01*
X124317142Y-96162857D01*
X124269523Y-96067619D01*
X124221904Y-96020000D01*
X124126666Y-95972380D01*
X123936190Y-95972380D01*
X123840952Y-96020000D01*
X123793333Y-96067619D01*
X123745714Y-96162857D01*
X123745714Y-96400952D01*
X123793333Y-96496190D01*
X123840952Y-96543809D01*
X123936190Y-96591428D01*
X124126666Y-96591428D01*
X124221904Y-96543809D01*
X124269523Y-96496190D01*
X124317142Y-96400952D01*
X124602857Y-95972380D02*
X124936190Y-96972380D01*
X125269523Y-95972380D01*
X130159523Y-86145714D02*
X130159523Y-86812380D01*
X129921428Y-85764761D02*
X129683333Y-86479047D01*
X130302380Y-86479047D01*
X130588095Y-85812380D02*
X131254761Y-85812380D01*
X130826190Y-86812380D01*
X131826190Y-85812380D02*
X131921428Y-85812380D01*
X132016666Y-85860000D01*
X132064285Y-85907619D01*
X132111904Y-86002857D01*
X132159523Y-86193333D01*
X132159523Y-86431428D01*
X132111904Y-86621904D01*
X132064285Y-86717142D01*
X132016666Y-86764761D01*
X131921428Y-86812380D01*
X131826190Y-86812380D01*
X131730952Y-86764761D01*
X131683333Y-86717142D01*
X131635714Y-86621904D01*
X131588095Y-86431428D01*
X131588095Y-86193333D01*
X131635714Y-86002857D01*
X131683333Y-85907619D01*
X131730952Y-85860000D01*
X131826190Y-85812380D01*
X133540476Y-85812380D02*
X133730952Y-85812380D01*
X133826190Y-85860000D01*
X133921428Y-85955238D01*
X133969047Y-86145714D01*
X133969047Y-86479047D01*
X133921428Y-86669523D01*
X133826190Y-86764761D01*
X133730952Y-86812380D01*
X133540476Y-86812380D01*
X133445238Y-86764761D01*
X133350000Y-86669523D01*
X133302380Y-86479047D01*
X133302380Y-86145714D01*
X133350000Y-85955238D01*
X133445238Y-85860000D01*
X133540476Y-85812380D01*
X134397619Y-86812380D02*
X134397619Y-85812380D01*
X134826190Y-86812380D02*
X134826190Y-86288571D01*
X134778571Y-86193333D01*
X134683333Y-86145714D01*
X134540476Y-86145714D01*
X134445238Y-86193333D01*
X134397619Y-86240952D01*
X135302380Y-86812380D02*
X135302380Y-86145714D01*
X135302380Y-86240952D02*
X135350000Y-86193333D01*
X135445238Y-86145714D01*
X135588095Y-86145714D01*
X135683333Y-86193333D01*
X135730952Y-86288571D01*
X135730952Y-86812380D01*
X135730952Y-86288571D02*
X135778571Y-86193333D01*
X135873809Y-86145714D01*
X136016666Y-86145714D01*
X136111904Y-86193333D01*
X136159523Y-86288571D01*
X136159523Y-86812380D01*
X136588095Y-86764761D02*
X136683333Y-86812380D01*
X136873809Y-86812380D01*
X136969047Y-86764761D01*
X137016666Y-86669523D01*
X137016666Y-86621904D01*
X136969047Y-86526666D01*
X136873809Y-86479047D01*
X136730952Y-86479047D01*
X136635714Y-86431428D01*
X136588095Y-86336190D01*
X136588095Y-86288571D01*
X136635714Y-86193333D01*
X136730952Y-86145714D01*
X136873809Y-86145714D01*
X136969047Y-86193333D01*
%TO.C,D1*%
X140231904Y-89202380D02*
X140231904Y-88202380D01*
X140470000Y-88202380D01*
X140612857Y-88250000D01*
X140708095Y-88345238D01*
X140755714Y-88440476D01*
X140803333Y-88630952D01*
X140803333Y-88773809D01*
X140755714Y-88964285D01*
X140708095Y-89059523D01*
X140612857Y-89154761D01*
X140470000Y-89202380D01*
X140231904Y-89202380D01*
X141755714Y-89202380D02*
X141184285Y-89202380D01*
X141470000Y-89202380D02*
X141470000Y-88202380D01*
X141374761Y-88345238D01*
X141279523Y-88440476D01*
X141184285Y-88488095D01*
%TO.C,R1*%
X133093333Y-81602380D02*
X132760000Y-81126190D01*
X132521904Y-81602380D02*
X132521904Y-80602380D01*
X132902857Y-80602380D01*
X132998095Y-80650000D01*
X133045714Y-80697619D01*
X133093333Y-80792857D01*
X133093333Y-80935714D01*
X133045714Y-81030952D01*
X132998095Y-81078571D01*
X132902857Y-81126190D01*
X132521904Y-81126190D01*
X134045714Y-81602380D02*
X133474285Y-81602380D01*
X133760000Y-81602380D02*
X133760000Y-80602380D01*
X133664761Y-80745238D01*
X133569523Y-80840476D01*
X133474285Y-80888095D01*
%TO.C,BT1*%
X123674285Y-89038571D02*
X123817142Y-89086190D01*
X123864761Y-89133809D01*
X123912380Y-89229047D01*
X123912380Y-89371904D01*
X123864761Y-89467142D01*
X123817142Y-89514761D01*
X123721904Y-89562380D01*
X123340952Y-89562380D01*
X123340952Y-88562380D01*
X123674285Y-88562380D01*
X123769523Y-88610000D01*
X123817142Y-88657619D01*
X123864761Y-88752857D01*
X123864761Y-88848095D01*
X123817142Y-88943333D01*
X123769523Y-88990952D01*
X123674285Y-89038571D01*
X123340952Y-89038571D01*
X124198095Y-88562380D02*
X124769523Y-88562380D01*
X124483809Y-89562380D02*
X124483809Y-88562380D01*
X125626666Y-89562380D02*
X125055238Y-89562380D01*
X125340952Y-89562380D02*
X125340952Y-88562380D01*
X125245714Y-88705238D01*
X125150476Y-88800476D01*
X125055238Y-88848095D01*
D11*
%TO.C,D1*%
X138410000Y-91165000D02*
X138410000Y-94255000D01*
X143960000Y-92710462D02*
G75*
G03*
X138410000Y-91165170I-2990000J462D01*
G01*
X138410000Y-94254830D02*
G75*
G03*
X143960000Y-92709538I2560000J1544830D01*
G01*
X143470000Y-92710000D02*
G75*
G03*
X143470000Y-92710000I-2500000J0D01*
G01*
%TO.C,R1*%
X136530000Y-84890000D02*
X136530000Y-82150000D01*
X136530000Y-82150000D02*
X129990000Y-82150000D01*
X139840000Y-83520000D02*
X136530000Y-83520000D01*
X129990000Y-82150000D02*
X129990000Y-84890000D01*
X129990000Y-84890000D02*
X136530000Y-84890000D01*
X126680000Y-83520000D02*
X129990000Y-83520000D01*
%TO.C,BT1*%
X123130000Y-95310000D02*
X125790000Y-95310000D01*
X123130000Y-91440000D02*
X123130000Y-90110000D01*
X125790000Y-92710000D02*
X125790000Y-95310000D01*
X123130000Y-92710000D02*
X123130000Y-95310000D01*
X123130000Y-92710000D02*
X125790000Y-92710000D01*
X123130000Y-90110000D02*
X124460000Y-90110000D01*
%TD*%
M02*
